<svg xmlns="http://www.w3.org/2000/svg" width="42.77" height="42.754" viewBox="0 0 42.77 42.754"><defs><style>.a{fill:#fff;}</style></defs><g transform="translate(-393.115 -79.59)"><path class="a" d="M404.517,95.98a.712.712,0,0,0-.712.712v1.425a.712.712,0,0,0,.712.712h4.275a.712.712,0,0,0,.712-.712V93.842a.712.712,0,0,0-.712-.712h-1.425a.713.713,0,1,0,0,1.425h.712V97.4H405.23v-.713a.713.713,0,0,0-.713-.712Zm0,0"/><path class="a" d="M403.8,105.954a.712.712,0,0,0,.712.712h4.275a.712.712,0,0,0,.712-.712v-4.275a.712.712,0,0,0-.712-.712h-4.275a.712.712,0,0,0-.712.712Zm1.425-3.562h2.849v2.849H405.23Zm0,0"/><path class="a" d="M403.8,113.791a.712.712,0,0,0,.712.712h4.275a.712.712,0,0,0,.712-.712V111.2l2.551-1.823a.713.713,0,0,0-.827-1.154l-1.724,1.232a.711.711,0,0,0-.712-.655h-4.275a.712.712,0,0,0-.712.712Zm4.274-.713H405.23v-1.425l.854,1.14a.708.708,0,0,0,.984.15l1.011-.713Zm0-2.607-1.275.911-.862-1.154h2.137Zm0,0"/><path class="a" d="M413.066,114.5h7.125a.712.712,0,0,0,0-1.425h-7.125a.712.712,0,0,0,0,1.425Zm0,0"/><path class="a" d="M413.066,111.653h3.563a.713.713,0,0,0,0-1.425h-3.563a.713.713,0,0,0,0,1.425Zm0,0"/><path class="a" d="M420.191,105.241h-7.125a.713.713,0,0,0,0,1.425h7.125a.713.713,0,0,0,0-1.425Zm0,0"/><path class="a" d="M413.066,102.392a.713.713,0,0,0,0,1.425h3.563a.713.713,0,0,0,0-1.425Zm0,0"/><path class="a" d="M419.478,98.829a.712.712,0,1,0,0-1.424h-7.124a.712.712,0,1,0,0,1.424Zm0,0"/><path class="a" d="M412.354,95.98h4.987a.713.713,0,0,0,0-1.425h-4.987a.713.713,0,0,0,0,1.425Zm0,0"/><path class="a" d="M427.315,102.669v1.425a.712.712,0,1,0,1.425,0v-1.425a.712.712,0,0,0-1.425,0Zm0,0"/><path class="a" d="M406.654,86.718h.713v2.137a.713.713,0,0,0,.712.713H420.9a.713.713,0,0,0,.713-.713V86.718h5.7v.99a.712.712,0,1,0,1.425,0v-1.7a.712.712,0,0,0-.712-.713h-6.412V83.156a.714.714,0,0,0-.713-.713h-2.921a3.562,3.562,0,0,0-6.981,0h-2.922a.713.713,0,0,0-.712.713v2.137h-.713a.713.713,0,0,0,0,1.425Zm7.837-5.7a2.134,2.134,0,0,1,2.016,1.424h-4.032a2.136,2.136,0,0,1,2.016-1.424Zm-5.7,2.849h11.4v4.275h-11.4Zm0,0"/><path class="a" d="M434.824,110.022a.712.712,0,0,0-1.012,0l-2.514,2.515-2.017-2.016,2.515-2.515a.712.712,0,0,0,0-1.012,3.562,3.562,0,0,0-5.037,0l-2.016,2.016a3.565,3.565,0,0,0-.791,3.819l-8.086,8.086h-14.2V98.559a.712.712,0,1,0-1.424,0v23.068a.712.712,0,0,0,.712.713h15.2a.775.775,0,0,0,.278-.057.723.723,0,0,0,.228-.15l8.079-8.086,3.028,3.028-4.018,4.046a.713.713,0,0,0,1.005,1.012l4.274-4.274a3.554,3.554,0,0,0,3.819-.791l2.016-2.016a3.562,3.562,0,0,0-.043-5.03Zm-1.012,4.025-2.016,2.016a2.135,2.135,0,0,1-3.02,0l-3.021-2.985a2.137,2.137,0,0,1,0-3.021l2.016-2.016a2.135,2.135,0,0,1,1.51-.662,2.2,2.2,0,0,1,.92.206l-2.43,2.437a.712.712,0,0,0,0,1l3.021,3.021a.71.71,0,0,0,1,0l2.437-2.394a2.137,2.137,0,0,1-.421,2.394Zm0,0"/><path class="a" d="M425.249,116.569a.712.712,0,0,0-1,0l-4.56,4.552a.716.716,0,1,0,1.012,1.012l4.552-4.559a.713.713,0,0,0,0-1Zm0,0"/><path class="a" d="M401.617,95.98v-1.2a5.133,5.133,0,0,0,.713-.4l1.04.6a.714.714,0,0,0,.969-.264l1.425-2.465a.714.714,0,0,0-.257-.977l-1.04-.6a3.672,3.672,0,0,0,0-.8l1.04-.6a.713.713,0,0,0,.257-.976l-1.425-2.465a.712.712,0,0,0-.969-.264l-1.04.6a5.14,5.14,0,0,0-.713-.4v-1.2a.712.712,0,0,0-.712-.713h-2.85a.713.713,0,0,0-.712.713v1.2a5.244,5.244,0,0,0-.713.4l-1.018-.6a.713.713,0,0,0-.976.264l-1.425,2.465a.714.714,0,0,0,.263.976l1.069.6v.8l-1.069.6a.715.715,0,0,0-.263.977l1.425,2.465a.717.717,0,0,0,.976.264.715.715,0,0,0,.263-.977l-1.068-1.852.826-.449a.712.712,0,0,0,.335-.776,3.331,3.331,0,0,1,0-1.3.714.714,0,0,0-.335-.777l-.826-.477.712-1.24.827.485a.713.713,0,0,0,.819-.078,3.635,3.635,0,0,1,1.125-.649.712.712,0,0,0,.478-.67v-.933h1.424v.962a.713.713,0,0,0,.471.669,3.493,3.493,0,0,1,1.126.649.711.711,0,0,0,.819.078l.833-.484.713,1.239-.833.449a.713.713,0,0,0-.343.749,3.287,3.287,0,0,1,0,1.3.713.713,0,0,0,.343.805l.833.477-.713,1.24-.833-.485a.713.713,0,0,0-.819.079,3.472,3.472,0,0,1-1.126.648.715.715,0,0,0-.471.67v.933h-1.424v-.962a.713.713,0,0,0-1.425,0V95.98a.712.712,0,0,0,.712.712h2.85a.712.712,0,0,0,.712-.712Zm0,0"/><path class="a" d="M399.48,92.418a2.137,2.137,0,1,0-2.137-2.138,2.137,2.137,0,0,0,2.137,2.138Zm0-2.85a.712.712,0,1,1-.712.712.713.713,0,0,1,.712-.712Zm0,0"/><path class="a" d="M422.606,100.675a.657.657,0,0,0-.078.228l-.549,3.8a.715.715,0,0,0,1.147.655l3.014-2.372a.434.434,0,0,0,.056-.057l.065-.085v-.036l7.124-12.34.713-1.232a2.139,2.139,0,1,0-3.7-2.137l-.712,1.232-7.125,12.34a.044.044,0,0,0,.05.007Zm1.183,1.475.641.37-.784.62Zm7.893-14.363a.715.715,0,0,1,1.24.712l-.356.62-1.24-.713Zm-1.068,1.852,1.239.713-6.412,11.106-1.239-.712Zm0,0"/></g></svg>