<svg xmlns="http://www.w3.org/2000/svg" width="40.001" height="40.001" viewBox="0 0 40.001 40.001"><defs><style>.a{fill:#fff;}</style></defs><path class="a" d="M1169.727,83.31h-13.249a3.516,3.516,0,0,0-6.83,1.172v34.141h-3.516a1.172,1.172,0,0,0,0,2.344h14.063a1.172,1.172,0,0,0,0-2.344h-3.516V102.139H1170.9v1.172a3.52,3.52,0,0,0,3.516,3.515h9.375a1.171,1.171,0,0,0,.975-1.822l-4.256-6.385,4.26-6.46a1.172,1.172,0,0,0-.979-1.817h-10.547V86.826A3.519,3.519,0,0,0,1169.727,83.31Zm-17.735,35.313V84.482a1.172,1.172,0,0,1,2.344,0v34.141Zm4.687-18.828V85.654h13.048a1.173,1.173,0,0,1,1.171,1.172V99.795Zm24.934-7.11-3.49,5.293a1.171,1.171,0,0,0,0,1.3l3.473,5.209h-7.186a1.173,1.173,0,0,1-1.172-1.171V92.685Z" transform="translate(-1144.96 -80.966)"/></svg>