<svg xmlns="http://www.w3.org/2000/svg" width="39.977" height="43.943" viewBox="0 0 39.977 43.943"><defs><style>.a{fill:#fff;}</style></defs><g transform="translate(-102.422 -79.266)"><path class="a" d="M132.371,98.289V89.972a.961.961,0,0,0-.266-.632l-9.323-9.79a.931.931,0,0,0-.669-.284H107.331a4.925,4.925,0,0,0-4.909,4.955v27.952a4.894,4.894,0,0,0,4.909,4.918H119a12.595,12.595,0,1,0,13.372-18.8Zm-9.342-15.808,6.255,6.585h-4.057a2.213,2.213,0,0,1-2.2-2.207Zm-15.7,32.778a3.068,3.068,0,0,1-3.077-3.086V84.221a3.093,3.093,0,0,1,3.077-3.123H121.2v5.761a4.038,4.038,0,0,0,4.03,4.038h5.312V98.05c-.275-.009-.495-.036-.733-.036a12.779,12.779,0,0,0-8.352,3.15H109.822a.916.916,0,1,0,0,1.832h9.928a14.6,14.6,0,0,0-1.612,2.839h-8.316a.916.916,0,0,0,0,1.832h7.721a12.575,12.575,0,0,0,.549,7.6H107.331Zm22.466,6.128a10.762,10.762,0,1,1,10.762-10.762A10.773,10.773,0,0,1,129.8,121.387Zm0,0"/><path class="a" d="M109.822,98.407H119.1a.916.916,0,1,0,0-1.831h-9.278a.916.916,0,1,0,0,1.831Zm0,0"/><path class="a" d="M134.486,110.433l-3.764,4.057v-10a.915.915,0,1,0-1.831,0v10l-3.792-4.057a.924.924,0,0,0-1.3-.046.912.912,0,0,0-.045,1.291l5.357,5.761a.909.909,0,0,0,1.337,0l5.368-5.761a.911.911,0,1,0-1.329-1.245Zm0,0"/></g></svg>