<svg xmlns="http://www.w3.org/2000/svg" width="70.481" height="78.877" viewBox="0 0 70.481 78.877"><defs><style>.a{fill:#fff;}</style></defs><g transform="translate(72.137 92.57)"><path class="a" d="M-29.822,201.828h-5.261a1.315,1.315,0,0,0-1.315,1.316,1.314,1.314,0,0,0,1.315,1.315h5.261a1.315,1.315,0,0,0,1.315-1.315,1.316,1.316,0,0,0-1.315-1.316Zm0,0" transform="translate(-28.394 -233.897)"/><path class="a" d="M14.8,203.144a1.314,1.314,0,0,0,1.315,1.315h34.2a1.315,1.315,0,0,0,0-2.631h-34.2a1.315,1.315,0,0,0-1.315,1.316Zm0,0" transform="translate(-69.071 -233.897)"/><path class="a" d="M-2.241-1.629a1.316,1.316,0,0,0,.5-1.233A1.314,1.314,0,0,0-2.575-3.9a1.316,1.316,0,0,0-1.312.217A18.335,18.335,0,0,0-10.8,10.691a1.315,1.315,0,0,0,1.316,1.315A1.315,1.315,0,0,0-8.17,10.691,15.721,15.721,0,0,1-2.241-1.629Zm0,0" transform="translate(-48.73 -70.38)"/><path class="a" d="M-22.7-92.57a20.887,20.887,0,0,0-10.954,3.111,10.412,10.412,0,0,0-7.459-3.111A10.533,10.533,0,0,0-51.639-82.048a10.414,10.414,0,0,0,.064,1.152A23.674,23.674,0,0,0-64.792-59.689v14.467a23.509,23.509,0,0,1-6.287,14.4,3.964,3.964,0,0,0-.71,4.316A3.875,3.875,0,0,0-68.2-24.177h15.322a11.837,11.837,0,0,0,11.76,10.484,11.838,11.838,0,0,0,11.76-10.484h15.321A3.875,3.875,0,0,0-10.446-26.5a3.966,3.966,0,0,0-.713-4.321,23.677,23.677,0,0,1-6.284-14.4v-5.954A21.03,21.03,0,0,0-1.825-74.192,21.03,21.03,0,0,0-22.7-92.57ZM-49.01-82.048a7.9,7.9,0,0,1,7.892-7.891,7.793,7.793,0,0,1,5.249,2.021,21.177,21.177,0,0,0-4.25,4.592c-.334-.014-.664-.038-1-.038a23.53,23.53,0,0,0-7.892,1.379v-.064Zm7.892,65.763a9.221,9.221,0,0,1-9.114-7.891H-32a9.22,9.22,0,0,1-9.113,7.891ZM-13.1-29.054a1.358,1.358,0,0,1,.251,1.484,1.25,1.25,0,0,1-1.184.762H-68.2a1.247,1.247,0,0,1-1.183-.762,1.352,1.352,0,0,1,.249-1.474,25.873,25.873,0,0,0,6.97-16.178V-59.689A21.058,21.058,0,0,1-41.61-80.708a20.942,20.942,0,0,0,1.75,21.485,20.941,20.941,0,0,0,19.786,8.557v5.444A25.869,25.869,0,0,0-13.1-29.054Zm-9.6-24.059A18.413,18.413,0,0,1-41.118-71.527,18.413,18.413,0,0,1-22.7-89.94,18.413,18.413,0,0,1-4.291-71.527,18.434,18.434,0,0,1-22.7-53.113Zm0,0"/><path class="a" d="M145.676-66.968a5.876,5.876,0,0,0-4.439,2.026,5.874,5.874,0,0,0-1.379,4.681l1.516,10.6a4.347,4.347,0,0,0,4.3,3.734,4.347,4.347,0,0,0,4.3-3.734l1.516-10.6a5.877,5.877,0,0,0-1.379-4.681,5.878,5.878,0,0,0-4.44-2.026Zm3.215,6.336-1.514,10.6a1.718,1.718,0,0,1-1.7,1.476,1.718,1.718,0,0,1-1.7-1.476l-1.514-10.6a3.246,3.246,0,0,1,1.459-3.193,3.246,3.246,0,0,1,3.51,0,3.247,3.247,0,0,1,1.46,3.193Zm0,0" transform="translate(-168.381 -20.341)"/><path class="a" d="M153.145,48.231a3.946,3.946,0,1,0,3.947,3.946,3.946,3.946,0,0,0-3.947-3.946Zm0,5.26a1.315,1.315,0,1,1,1.316-1.315,1.315,1.315,0,0,1-1.316,1.315Zm0,0" transform="translate(-175.849 -111.865)"/></g></svg>