<svg xmlns="http://www.w3.org/2000/svg" width="41.949" height="41.948" viewBox="0 0 41.949 41.948"><defs><style>.a{fill:#3c6c88;}</style></defs><g transform="translate(0 0)"><path class="a" d="M27.983,27.988a11.08,11.08,0,0,0,4.3-2.666l6.448-6.448A11.069,11.069,0,0,0,23.073,3.221L16.625,9.669a11,11,0,0,0-2.66,4.292,11.08,11.08,0,0,0-4.3,2.666L3.22,23.074A11.069,11.069,0,0,0,18.874,38.728l6.448-6.448A11,11,0,0,0,27.983,27.988Zm-2.66-11.362a11.109,11.109,0,0,0-3.057-2.162l6.026-6.026a3.69,3.69,0,0,1,5.218,5.218l-6.026,6.026A11.021,11.021,0,0,0,25.322,16.626Zm-6.957-5.218L24.813,4.96A8.609,8.609,0,1,1,36.988,17.136L30.54,23.583a8.636,8.636,0,0,1-2,1.49,11.153,11.153,0,0,0-.2-2.813,6.131,6.131,0,0,0,.46-.416L35.249,15.4a6.15,6.15,0,0,0-8.7-8.7L20.1,13.147a6.16,6.16,0,0,0,0,8.7,3.691,3.691,0,0,1,.953,3.565,8.613,8.613,0,0,1-2.692-14ZM16.625,25.323a11.109,11.109,0,0,0,3.057,2.162L13.656,33.51a3.684,3.684,0,0,1-5.2-5.218l6.01-6.026A11.021,11.021,0,0,0,16.625,25.323Zm.51,11.666A8.609,8.609,0,0,1,4.959,24.813l6.448-6.448a8.64,8.64,0,0,1,2-1.49,11.154,11.154,0,0,0,.2,2.813,6.148,6.148,0,0,0-.46.416L6.715,26.553a6.144,6.144,0,1,0,8.68,8.7L21.843,28.8a6.16,6.16,0,0,0,0-8.7,3.691,3.691,0,0,1-.953-3.565,8.613,8.613,0,0,1,2.692,14Z"/><path class="a" d="M391.7,389.955a1.23,1.23,0,0,0-1.739,1.739l1.739,1.739a1.23,1.23,0,0,0,1.739-1.739Z" transform="translate(-357.676 -357.675)"/><path class="a" d="M73.251,74.991a1.23,1.23,0,0,0,1.739-1.739l-1.739-1.739a1.23,1.23,0,0,0-1.739,1.739Z" transform="translate(-65.322 -65.323)"/><path class="a" d="M447.909,296.058l-2.376-.637a1.23,1.23,0,1,0-.637,2.376l2.376.637a1.23,1.23,0,1,0,.637-2.376Z" transform="translate(-407.609 -271.178)"/><path class="a" d="M9.9,181.239a15.18,15.18,0,0,0,2.7.679,1.23,1.23,0,0,0,.317-2.418l-2.376-.637a1.23,1.23,0,1,0-.637,2.376Z" transform="translate(-8.248 -164.17)"/><path class="a" d="M297.8,444.9a1.23,1.23,0,0,0-2.376.637l.637,2.376a1.23,1.23,0,0,0,2.376-.637Z" transform="translate(-271.179 -407.609)"/><path class="a" d="M179.5,12.908a1.23,1.23,0,0,0,2.376-.637L181.238,9.9a1.23,1.23,0,1,0-2.376.637Z" transform="translate(-164.169 -8.247)"/></g></svg>