<svg xmlns="http://www.w3.org/2000/svg" width="50.43" height="50.428" viewBox="0 0 50.43 50.428"><defs><style>.a{fill:#3c6c88;}.b{fill:#2980b9;}</style></defs><g transform="translate(0 -0.01)"><path class="a" d="M219.985,353.98a.985.985,0,1,0,.7.289A.988.988,0,0,0,219.985,353.98Z" transform="translate(-197.429 -319.105)"/><path class="a" d="M44.126,75.07a.985.985,0,0,0-.985.985v4.332H26.2V77.956a7.36,7.36,0,0,0-6.442-7.293A5.12,5.12,0,0,0,20.9,67.429V60.5a.985.985,0,0,0-.985-.985H14.766a4.157,4.157,0,0,0-4.152,4.152v3.762a5.12,5.12,0,0,0,1.147,3.234,7.36,7.36,0,0,0-6.442,7.293v2.431H1.97V56.724a.767.767,0,0,1,.769-.764H23.212a.985.985,0,0,0,0-1.97H2.739A2.739,2.739,0,0,0,0,56.724v29.2A2.739,2.739,0,0,0,2.739,88.66H17.727v4.55a4.938,4.938,0,0,0-4.43,4.906.985.985,0,0,0,.985.985H30.829a.985.985,0,0,0,.985-.985,4.938,4.938,0,0,0-4.43-4.906V88.66H42.372a2.739,2.739,0,0,0,2.739-2.734V76.055A.985.985,0,0,0,44.126,75.07ZM18.935,67.429a3.175,3.175,0,0,1-6.351,0v-.985h4.934a3.365,3.365,0,0,0,1.417-.312v1.3Zm-2.026,5.145-1.149,1.149L14.61,72.575Zm-4.325-8.907a2.185,2.185,0,0,1,2.182-2.182h4.169v1.573a1.418,1.418,0,0,1-1.417,1.417H12.584Zm-5.3,14.288a5.389,5.389,0,0,1,4.593-5.323l3.181,3.181a.985.985,0,0,0,1.393,0l3.181-3.181a5.389,5.389,0,0,1,4.594,5.323v2.431H7.289ZM29.676,97.131H15.435a2.966,2.966,0,0,1,2.793-1.976h8.655A2.966,2.966,0,0,1,29.676,97.131Zm-4.262-3.946H19.7V88.66h5.717Zm16.958-6.494H2.739a.767.767,0,0,1-.769-.764v-3.57H43.141v3.57A.767.767,0,0,1,42.372,86.691Z" transform="translate(0 -48.663)"/><path class="a" d="M438.985,230.34a.985.985,0,1,0,.7.289A.993.993,0,0,0,438.985,230.34Z" transform="translate(-394.859 -207.644)"/><path class="b" d="M371.372,47.01h-7.387a.985.985,0,0,0,0,1.97h7.387a.985.985,0,0,0,0-1.97Z" transform="translate(-327.246 -42.371)"/><path class="b" d="M322.985,48.98a.985.985,0,1,0-.7-.289A.992.992,0,0,0,322.985,48.98Z" transform="translate(-290.284 -42.371)"/><path class="b" d="M334.41,91.01H322.985a.985.985,0,1,0,0,1.97H334.41a.985.985,0,1,0,0-1.97Z" transform="translate(-290.284 -82.037)"/><path class="b" d="M334.41,135.01H322.985a.985.985,0,1,0,0,1.97H334.41a.985.985,0,1,0,0-1.97Z" transform="translate(-290.284 -121.703)"/><path class="b" d="M287.108.01H272.925A4.93,4.93,0,0,0,268,4.935V15.474a4.932,4.932,0,0,0,4.367,4.893v2.559a.985.985,0,0,0,1.681.7l3.224-3.225h9.836a4.93,4.93,0,0,0,4.925-4.925V4.935A4.93,4.93,0,0,0,287.108.01Zm2.955,15.464a2.958,2.958,0,0,1-2.955,2.955H276.865a.985.985,0,0,0-.7.288l-1.832,1.832V19.414a.985.985,0,0,0-.985-.985h-.427a2.958,2.958,0,0,1-2.955-2.955V4.935a2.958,2.958,0,0,1,2.955-2.955h14.183a2.958,2.958,0,0,1,2.955,2.955Z" transform="translate(-241.603)"/></g></svg>