<svg xmlns="http://www.w3.org/2000/svg" width="52.801" height="51.151" viewBox="0 0 52.801 51.151"><defs><style>.a{fill:#3c6c88;}.b{fill:#29abe2;}</style></defs><g transform="translate(-4451.386 -1364.323)"><path class="a" d="M4501.712,1364.323h-47.851a2.475,2.475,0,0,0-2.475,2.475v36.3a.825.825,0,0,0,.825.825H4471l-1.32,6.6h-1.8a.826.826,0,0,0-.825.825v2.475h-1.65v1.65h24.751v-1.65h-1.65v-2.475a.826.826,0,0,0-.825-.825h-1.8l-1.32-6.6h18.795a.825.825,0,0,0,.825-.825v-36.3A2.475,2.475,0,0,0,4501.712,1364.323Zm-47.851,1.65h47.851a.825.825,0,0,1,.825.825v26.4h-2.475v-23.926a.825.825,0,0,0-.825-.825h-42.9a.824.824,0,0,0-.825.825V1393.2h-2.475v-26.4A.824.824,0,0,1,4453.861,1365.973Zm44.551,27.226h-41.251v-23.1h41.251Zm-11.55,20.625h-18.151v-1.65h18.151Zm-2.657-3.3h-12.837l1.319-6.6h10.2Zm-31.169-8.25v-7.425h49.5v7.425Z"/><path class="b" d="M4477.787,1395.674a2.475,2.475,0,1,0,2.475,2.475A2.476,2.476,0,0,0,4477.787,1395.674Zm0,3.3a.825.825,0,1,1,.825-.825A.825.825,0,0,1,4477.787,1398.974Z"/><path class="b" d="M4460.461,1373.4h1.65v-1.65h-2.475a.825.825,0,0,0-.825.825v2.475h1.65Z"/><path class="b" d="M4467.061,1380h4.95a.825.825,0,0,0,.825-.825v-4.95a.825.825,0,0,0-.825-.825h-4.95a.825.825,0,0,0-.825.825v4.95A.825.825,0,0,0,4467.061,1380Zm1.993-1.65,2.132-2.133v2.133Zm.966-3.3-2.134,2.134v-2.134Z"/><rect class="b" width="1.65" height="1.65" transform="translate(4475.312 1374.223)"/><rect class="b" width="1.65" height="1.65" transform="translate(4478.611 1374.223)"/><rect class="b" width="13.2" height="1.65" transform="translate(4475.312 1377.523)"/><path class="b" d="M4467.061,1389.073h4.95a.825.825,0,0,0,.825-.825v-4.95a.825.825,0,0,0-.825-.825h-4.95a.826.826,0,0,0-.825.825v4.95A.825.825,0,0,0,4467.061,1389.073Zm.825-4.95h3.3v3.3h-3.3Z"/><rect class="b" width="1.65" height="1.65" transform="translate(4475.312 1383.298)"/><rect class="b" width="1.65" height="1.65" transform="translate(4478.611 1383.298)"/><rect class="b" width="13.2" height="1.65" transform="translate(4475.312 1386.598)"/></g></svg>