<svg xmlns="http://www.w3.org/2000/svg" width="65.029" height="65.029" viewBox="0 0 65.029 65.029"><defs><style>.a{fill:#3c5a99;}.b{fill:#fff;fill-rule:evenodd;}</style></defs><g transform="translate(-4097.059 -1357.384)"><path class="a" d="M4129.574,1422.413a32.514,32.514,0,1,1,32.514-32.514A32.551,32.551,0,0,1,4129.574,1422.413Z"/><path class="b" d="M4124.475,1390.052V1408.9a.491.491,0,0,0,.491.491h7a.491.491,0,0,0,.491-.491v-19.152h5.073a.49.49,0,0,0,.489-.449l.488-5.771a.491.491,0,0,0-.489-.532h-5.561V1378.9a1.737,1.737,0,0,1,1.737-1.738h3.91a.49.49,0,0,0,.491-.49V1370.9a.491.491,0,0,0-.491-.491H4131.5a7.02,7.02,0,0,0-7.02,7.021v5.563h-3.5a.491.491,0,0,0-.491.491v5.77a.491.491,0,0,0,.491.491h3.5Z"/></g></svg>