<svg xmlns="http://www.w3.org/2000/svg" width="26.197" height="26.197" viewBox="0 0 26.197 26.197"><defs><style>.a{fill:none;stroke:#fff;stroke-miterlimit:10;}.b{fill:#fff;fill-rule:evenodd;}</style></defs><g transform="translate(-471.822 -293.106)"><path class="a" d="M484.921,318.8a12.6,12.6,0,1,1,12.6-12.6A12.613,12.613,0,0,1,484.921,318.8Z"/><path class="b" d="M482.945,306.264v7.3a.19.19,0,0,0,.19.19h2.712a.19.19,0,0,0,.19-.19v-7.421H488a.19.19,0,0,0,.189-.174l.189-2.236a.189.189,0,0,0-.189-.206h-2.155v-1.587a.673.673,0,0,1,.673-.673h1.515a.19.19,0,0,0,.19-.19v-2.236a.19.19,0,0,0-.19-.19h-2.56a2.72,2.72,0,0,0-2.72,2.72v2.156h-1.356a.19.19,0,0,0-.19.19v2.236a.19.19,0,0,0,.19.19h1.356Z"/></g></svg>