<svg xmlns="http://www.w3.org/2000/svg" xmlns:xlink="http://www.w3.org/1999/xlink" width="77.57" height="73.566" viewBox="0 0 77.57 73.566"><defs><style>.a{fill:none;}.b{clip-path:url(#a);}.c{fill:#e6e7e8;}.d{fill:#6dc9f7;}.e{fill:#d4fbff;}.f,.i{fill:#fff;}.g{fill:#3a2c60;}.h{fill:#3c5a99;}.i{fill-rule:evenodd;}</style><clipPath id="a"><rect class="a" width="77.57" height="73.566" transform="translate(4527.625 1066.107)"/></clipPath></defs><g transform="translate(-4527.625 -1066.107)"><g class="b"><path class="c" d="M4604.493,1105.819l-10.452-12.052a2.233,2.233,0,0,0-.96-.639v-17.05a6.763,6.763,0,0,0-6.757-6.756H4537.53a6.762,6.762,0,0,0-6.754,6.756v4.49a.75.75,0,0,0,.75.751h11.259V1132.7a6.763,6.763,0,0,0,6.756,6.756h44.51a6.763,6.763,0,0,0,6.756-6.756v-4.49a.75.75,0,0,0-.75-.751h-6.976v-1.751h3.549a2.255,2.255,0,0,0,2.252-2.252v-13.916l3.908,0h0a2.252,2.252,0,0,0,1.7-3.728Zm0,0"/></g><path class="d" d="M4540.533,1073.075a6,6,0,1,0-12.009,0v4.491h12.009Zm0,0"/><path class="e" d="M4557.268,1129.7v-4.49h32.059v-3.252h-4.295a1.5,1.5,0,0,1-1.5-1.5v-14.676h-4.663a1.5,1.5,0,0,1-1.132-2.486l10.468-12.042a1.492,1.492,0,0,1,1.123-.516v-17.664a6.006,6.006,0,0,0-6.005-6.005h-48.794a6.006,6.006,0,0,1,6.005,6.005V1129.7a6.006,6.006,0,0,0,6.006,6.006h4.724a6.006,6.006,0,0,0,6-6.006Zm0,0"/><path class="f" d="M4583.322,1067.07h-48.794a5.99,5.99,0,0,1,4.684,2.252h44.11a6.006,6.006,0,0,1,6.005,6.005v-2.252a6.005,6.005,0,0,0-6.005-6.005Zm0,0"/><path class="d" d="M4557.268,1125.212v4.49a6.006,6.006,0,0,1-6,6.006h39.785a6.006,6.006,0,0,0,6.006-6.006v-4.49Zm0,0"/><path class="f" d="M4588.2,1091.255l-10.468,12.042a1.5,1.5,0,0,0,1.132,2.486h4.662v14.675a1.5,1.5,0,0,0,1.5,1.5h8.594a1.5,1.5,0,0,0,1.5-1.5V1105.79l4.662,0a1.5,1.5,0,0,0,1.135-2.485l-10.451-12.051a1.5,1.5,0,0,0-2.268,0Zm0,0"/><path class="g" d="M4540.533,1101.389a.75.75,0,0,0,.751-.751v-7.709a.75.75,0,1,0-1.5,0v7.709a.751.751,0,0,0,.75.751Zm0,0"/><path class="g" d="M4548.51,1102.277h23.021a.75.75,0,1,0,0-1.5H4548.51a.75.75,0,0,0,0,1.5Zm0,0"/><path class="g" d="M4548.51,1109.784h23.021a.751.751,0,1,0,0-1.5H4548.51a.751.751,0,0,0,0,1.5Zm0,0"/><path class="g" d="M4548.51,1117.291h23.021a.751.751,0,1,0,0-1.5H4548.51a.751.751,0,0,0,0,1.5Zm0,0"/><path class="g" d="M4601.49,1102.817l-10.451-12.053a2.237,2.237,0,0,0-.961-.638v-17.051a6.763,6.763,0,0,0-6.756-6.756h-48.795a6.762,6.762,0,0,0-6.754,6.756v4.491a.75.75,0,0,0,.751.75h11.259v10.449a.75.75,0,1,0,1.5,0v-15.69a6.744,6.744,0,0,0-2.515-5.254h44.553a5.26,5.26,0,0,1,5.254,5.254v17.058a2.242,2.242,0,0,0-.938.628l-10.469,12.043a2.252,2.252,0,0,0,1.7,3.73h3.911v13.925a2.256,2.256,0,0,0,2.252,2.252h3.545v1.75h-31.308a.751.751,0,0,0-.751.751v4.49a5.261,5.261,0,0,1-5.254,5.255h-4.724a5.262,5.262,0,0,1-5.255-5.255v-25.311a.75.75,0,0,0-1.5,0V1129.7a6.763,6.763,0,0,0,6.756,6.756h44.509a6.763,6.763,0,0,0,6.756-6.756v-4.49a.749.749,0,0,0-.75-.751h-6.976v-1.751h3.549a2.255,2.255,0,0,0,2.252-2.252v-13.917l3.909,0h0a2.252,2.252,0,0,0,1.7-3.728Zm-61.707-29.742v3.74h-10.509v-3.74a5.255,5.255,0,0,1,10.509,0Zm56.52,56.627a5.261,5.261,0,0,1-5.255,5.255H4555.5a6.747,6.747,0,0,0,2.514-5.255v-3.739H4596.3Zm4.168-25.1a.737.737,0,0,1-.682.439l-4.661,0h0a.75.75,0,0,0-.75.75v14.668a.752.752,0,0,1-.751.75h-8.594a.751.751,0,0,1-.75-.75v-14.676a.751.751,0,0,0-.751-.75h-4.663a.751.751,0,0,1-.566-1.243l10.468-12.043a.739.739,0,0,1,.566-.258h0a.736.736,0,0,1,.567.259l10.452,12.053a.735.735,0,0,1,.115.8Zm0,0"/><g transform="translate(450.456 -286.162)"><g transform="translate(4097.059 1357.384)"><path class="h" d="M4109.443,1382.151a12.383,12.383,0,1,1,12.383-12.383A12.4,12.4,0,0,1,4109.443,1382.151Z" transform="translate(-4097.059 -1357.384)"/></g><g transform="translate(4105.981 1362.345)"><path class="i" d="M4122,1377.89v7.177a.187.187,0,0,0,.187.187h2.666a.187.187,0,0,0,.187-.187v-7.294h1.932a.185.185,0,0,0,.186-.171l.187-2.2a.187.187,0,0,0-.187-.2h-2.118v-1.559a.662.662,0,0,1,.662-.662h1.489a.187.187,0,0,0,.188-.187v-2.2a.187.187,0,0,0-.187-.187h-2.516a2.673,2.673,0,0,0-2.673,2.674v2.119h-1.333a.187.187,0,0,0-.187.187v2.2a.187.187,0,0,0,.188.187H4122Z" transform="translate(-4120.485 -1370.409)"/></g></g></g></svg>