<svg xmlns="http://www.w3.org/2000/svg" width="41.707" height="49.189" viewBox="0 0 41.707 49.189"><defs><style>.a{fill:#3c6c88;}.b{fill:#29abe2;}</style></defs><g transform="translate(-4819.041 -1365.304)"><path class="a" d="M4850.168,1406.807h-28.245a2.885,2.885,0,0,1-2.882-2.882v-17.837a.96.96,0,1,1,1.921,0v17.837a.962.962,0,0,0,.961.961h28.245a.962.962,0,0,0,.961-.961v-35.739a.962.962,0,0,0-.961-.961h-28.245a.962.962,0,0,0-.961.961v9.8a.96.96,0,0,1-1.921,0v-9.8a2.885,2.885,0,0,1,2.882-2.882h28.245a2.885,2.885,0,0,1,2.882,2.882v35.739A2.885,2.885,0,0,1,4850.168,1406.807Z"/><path class="a" d="M4820,1383.248a.959.959,0,1,1,.679-.281A.969.969,0,0,1,4820,1383.248Z"/><path class="a" d="M4823.85,1410.656a.963.963,0,1,1,.679-.282A.964.964,0,0,1,4823.85,1410.656Z"/><path class="a" d="M4854.017,1410.656h-26.324a.961.961,0,0,1,0-1.921h26.324a.962.962,0,0,0,.961-.961v-37.66a.96.96,0,1,1,1.921,0v37.66A2.885,2.885,0,0,1,4854.017,1410.656Z"/><path class="a" d="M4857.866,1414.493H4827.7a.961.961,0,0,1,0-1.922h30.167a.962.962,0,0,0,.961-.96v-37.66a.96.96,0,1,1,1.921,0v37.66A2.885,2.885,0,0,1,4857.866,1414.493Z"/><path class="b" d="M4834.6,1383.558h-9.222a.961.961,0,0,1-.961-.961v-9.223a.961.961,0,0,1,.961-.961h9.222a.961.961,0,0,1,.961.961v9.223A.961.961,0,0,1,4834.6,1383.558Zm-8.262-1.922h7.3v-7.3h-7.3Z"/><path class="b" d="M4827.6,1392.793h0a.961.961,0,0,1-.68-.282l-1.867-1.866a.961.961,0,0,1,1.359-1.359l1.188,1.187,2.554-2.553a.96.96,0,0,1,1.358,1.358l-3.233,3.233A.955.955,0,0,1,4827.6,1392.793Z"/><path class="b" d="M4847.254,1391.147h-11.208a.961.961,0,1,1,0-1.921h11.208a.961.961,0,1,1,0,1.921Z"/><path class="b" d="M4846.71,1374.335h-6.725a.961.961,0,0,1,0-1.922h6.725a.961.961,0,0,1,0,1.922Z"/><path class="b" d="M4846.71,1378.946h-6.725a.961.961,0,1,1,0-1.921h6.725a.961.961,0,0,1,0,1.921Z"/><path class="b" d="M4846.71,1383.558h-6.725a.961.961,0,0,1,0-1.922h6.725a.961.961,0,0,1,0,1.922Z"/><path class="b" d="M4827.6,1400.13h0a.966.966,0,0,1-.68-.282l-1.867-1.867a.961.961,0,0,1,1.359-1.358l1.188,1.187,2.554-2.554a.961.961,0,0,1,1.358,1.359l-3.233,3.233A.96.96,0,0,1,4827.6,1400.13Z"/><path class="b" d="M4847.254,1398.449h-11.208a.961.961,0,0,1,0-1.922h11.208a.961.961,0,0,1,0,1.922Z"/></g></svg>