<svg xmlns="http://www.w3.org/2000/svg" width="49.825" height="40.689" viewBox="0 0 49.825 40.689"><defs><style>.a{fill:#3c6c88;}</style></defs><g transform="translate(-4648.411 -1369.554)"><path class="a" d="M4696.152,1382.841h-2.068v-5.815h-1.663v-3.32h-23.177l-2.968-4.152h-15.594a2.271,2.271,0,0,0-2.271,2.27V1408.1h0a2.119,2.119,0,0,0,2.125,2.14h37.17a2.106,2.106,0,0,0,2.035-1.5l8.491-23.283v-.149a2.224,2.224,0,0,0-2.084-2.466Zm-3.731,0h-6.641v-.831a.831.831,0,0,0-1.663,0v.831h-4.152v-.831a.829.829,0,1,0-1.658,0v.831h-4.152v-.831a.831.831,0,0,0-1.663,0v.831h-4.152v-.831a.829.829,0,1,0-1.658,0v.831h-4.152v-.831a.831.831,0,0,0-1.663,0v.831h-1.885a2.1,2.1,0,0,0-1.435.56v-4.712h34.874Zm-39.858,13.531v-12.7h4.728a1.864,1.864,0,0,0-.34.673l-.264.721Zm3.321-14.362h-2.145l.487-.487,1.658-1.662Zm34.879-6.641v1.657h-34.392l-2.145,2.15v-3.807Zm-40.689-3.545a.606.606,0,0,1,.608-.607h14.739l1.78,2.489h-14.638v7.128l-1.663,1.663v18.34l-.826,2.266Zm38.09,36.413a.478.478,0,0,1-.454.348h-37.17a.457.457,0,0,1-.37-.186.464.464,0,0,1-.1-.337l.834-2.291,7.608-20.854.024-.069a.468.468,0,0,1,.45-.349h37.17c.316,0,.4.455.418.682Zm0,0"/></g></svg>