<svg xmlns="http://www.w3.org/2000/svg" width="163.532" height="163.47" viewBox="0 0 163.532 163.47"><defs><style>.a{fill:#2980b9;}</style></defs><g transform="translate(-913.698 -79.59)"><path class="a" d="M927.114,104.027a2.724,2.724,0,0,0-2.726,2.722V112.2a2.724,2.724,0,0,0,2.726,2.722h16.342a2.727,2.727,0,0,0,2.726-2.722V95.852a2.727,2.727,0,0,0-2.726-2.722h-5.448a2.724,2.724,0,0,0,0,5.449h2.726v10.9h-10.9v-2.726a2.723,2.723,0,0,0-2.722-2.722Zm0,0" transform="translate(30.183 38.23)"/><path class="a" d="M924.388,120.035a2.724,2.724,0,0,0,2.726,2.722h16.342a2.727,2.727,0,0,0,2.726-2.722V103.689a2.727,2.727,0,0,0-2.726-2.722H927.114a2.724,2.724,0,0,0-2.726,2.722Zm5.448-13.619h10.9v10.893h-10.9Zm0,0" transform="translate(30.183 60.358)"/><path class="a" d="M924.388,129.783a2.724,2.724,0,0,0,2.726,2.722h16.342a2.727,2.727,0,0,0,2.726-2.722v-9.891l9.75-6.97a2.723,2.723,0,0,0-3.158-4.412l-6.592,4.711a2.721,2.721,0,0,0-2.726-2.5H927.114a2.724,2.724,0,0,0-2.726,2.722Zm16.345-2.726h-10.9v-5.449l3.269,4.359a2.7,2.7,0,0,0,3.758.574l3.869-2.726Zm0-9.968-4.875,3.483-3.3-4.412h8.175Zm0,0" transform="translate(30.183 80.575)"/><path class="a" d="M935.663,118.526H962.9a2.724,2.724,0,1,0,0-5.448H935.663a2.724,2.724,0,1,0,0,5.448Zm0,0" transform="translate(54.321 94.554)"/><path class="a" d="M935.663,115.677h13.619a2.724,2.724,0,0,0,0-5.449H935.663a2.724,2.724,0,1,0,0,5.449Zm0,0" transform="translate(54.321 86.507)"/><path class="a" d="M962.9,105.241H935.663a2.724,2.724,0,1,0,0,5.449H962.9a2.724,2.724,0,1,0,0-5.449Zm0,0" transform="translate(54.321 72.426)"/><path class="a" d="M935.663,102.392a2.724,2.724,0,1,0,0,5.449h13.619a2.724,2.724,0,0,0,0-5.449Zm0,0" transform="translate(54.321 64.382)"/><path class="a" d="M962.19,102.85a2.722,2.722,0,0,0,0-5.445H934.948a2.722,2.722,0,1,0,0,5.445Zm0,0" transform="translate(52.311 50.301)"/><path class="a" d="M934.948,100h19.068a2.724,2.724,0,1,0,0-5.449H934.948a2.724,2.724,0,0,0,0,5.449Zm0,0" transform="translate(52.311 42.254)"/><path class="a" d="M947.9,104.679v5.449a2.724,2.724,0,1,0,5.448,0v-5.449a2.724,2.724,0,0,0-5.448,0Zm0,0" transform="translate(96.564 63.154)"/><path class="a" d="M929.251,106.844h2.722v8.171a2.725,2.725,0,0,0,2.726,2.726h49.033a2.724,2.724,0,0,0,2.722-2.726v-8.171h21.791v3.785a2.724,2.724,0,1,0,5.448,0v-6.508a2.724,2.724,0,0,0-2.722-2.726H986.454V93.225a2.727,2.727,0,0,0-2.722-2.726H972.56a13.618,13.618,0,0,0-26.692,0H934.7a2.727,2.727,0,0,0-2.726,2.726V101.4h-2.722a2.724,2.724,0,1,0,0,5.449Zm29.965-21.79a8.168,8.168,0,0,1,7.708,5.445H951.5a8.169,8.169,0,0,1,7.712-5.445ZM937.422,95.947h43.584v16.346H937.422Zm0,0" transform="translate(36.217)"/><path class="a" d="M1053.047,144.4a2.718,2.718,0,0,0-3.865,0l-9.616,9.616-7.708-7.708,9.612-9.616a2.714,2.714,0,0,0,0-3.869,13.613,13.613,0,0,0-19.255,0l-7.708,7.708a13.617,13.617,0,0,0-3.024,14.6l-30.921,30.917H926.274V100.572a2.724,2.724,0,1,0-5.448,0v88.2a2.724,2.724,0,0,0,2.722,2.726h58.133a2.96,2.96,0,0,0,1.059-.218,2.778,2.778,0,0,0,.875-.573l30.89-30.917,11.574,11.578-15.363,15.47a2.727,2.727,0,0,0,3.843,3.869l16.346-16.342a13.582,13.582,0,0,0,14.6-3.024l7.712-7.708a13.624,13.624,0,0,0-.168-19.232Zm-3.865,15.39-7.712,7.708a8.165,8.165,0,0,1-11.547,0l-11.551-11.413a8.176,8.176,0,0,1,0-11.551l7.708-7.708a8.164,8.164,0,0,1,5.777-2.531,8.4,8.4,0,0,1,3.514.788l-9.291,9.318a2.723,2.723,0,0,0,0,3.839l11.551,11.551a2.716,2.716,0,0,0,3.839,0l9.318-9.153a8.17,8.17,0,0,1-1.606,9.153Zm0,0" transform="translate(20.126 51.546)"/><path class="a" d="M962.139,117.153a2.728,2.728,0,0,0-3.843,0l-17.435,17.4a2.736,2.736,0,1,0,3.87,3.869L962.139,121a2.728,2.728,0,0,0,0-3.843Zm0,0" transform="translate(74.428 103.826)"/><path class="a" d="M946.209,130.178V125.6a19.391,19.391,0,0,0,2.722-1.526l3.98,2.29a2.726,2.726,0,0,0,3.7-1.009l5.448-9.425a2.724,2.724,0,0,0-.979-3.736l-3.98-2.286a14.04,14.04,0,0,0,0-3.051l3.98-2.286a2.721,2.721,0,0,0,.979-3.732l-5.448-9.425a2.719,2.719,0,0,0-3.7-1.009l-3.98,2.29a19.411,19.411,0,0,0-2.722-1.529V86.594a2.725,2.725,0,0,0-2.726-2.726h-10.9a2.724,2.724,0,0,0-2.722,2.726v4.573a20.005,20.005,0,0,0-2.722,1.529l-3.9-2.29a2.725,2.725,0,0,0-3.732,1.009l-5.448,9.425a2.725,2.725,0,0,0,1.009,3.732l4.083,2.286v3.051l-4.083,2.286a2.731,2.731,0,0,0-1.009,3.736l5.448,9.425a2.735,2.735,0,0,0,4.741-2.726l-4.087-7.081,3.158-1.717a2.718,2.718,0,0,0,1.281-2.967,12.735,12.735,0,0,1,0-4.959,2.726,2.726,0,0,0-1.281-2.971l-3.158-1.824,2.722-4.741,3.162,1.854a2.725,2.725,0,0,0,3.131-.3,13.918,13.918,0,0,1,4.305-2.481,2.724,2.724,0,0,0,1.824-2.562V89.317h5.448v3.678a2.716,2.716,0,0,0,1.8,2.558,13.314,13.314,0,0,1,4.305,2.481,2.718,2.718,0,0,0,3.131.3l3.189-1.851,2.722,4.737-3.185,1.717a2.728,2.728,0,0,0-1.308,2.864,12.726,12.726,0,0,1,0,4.955,2.721,2.721,0,0,0,1.308,3.078l3.185,1.824-2.722,4.741-3.189-1.854a2.725,2.725,0,0,0-3.131.3,13.234,13.234,0,0,1-4.305,2.478,2.724,2.724,0,0,0-1.8,2.562v3.567h-5.448v-3.678a2.724,2.724,0,0,0-5.448,0v6.4a2.723,2.723,0,0,0,2.722,2.722h10.9a2.724,2.724,0,0,0,2.726-2.722Zm0,0" transform="translate(0 12.079)"/><path class="a" d="M926.1,104.488a8.172,8.172,0,1,0-8.171-8.175,8.173,8.173,0,0,0,8.171,8.175Zm0-10.9a2.722,2.722,0,1,1-2.722,2.722,2.722,2.722,0,0,1,2.722-2.722Zm0,0" transform="translate(11.938 24.15)"/><path class="a" d="M944.977,142.039a2.5,2.5,0,0,0-.3.872l-2.1,14.518a2.732,2.732,0,0,0,4.385,2.5l11.524-9.069a1.476,1.476,0,0,0,.218-.218l.245-.325v-.138L986.195,103l2.722-4.711a8.177,8.177,0,1,0-14.166-8.171l-2.722,4.711L944.79,142.013a.163.163,0,0,0,.188.027Zm4.523,5.64,2.451,1.415-2.994,2.371Zm30.183-54.917a2.732,2.732,0,1,1,4.737,2.722l-1.361,2.371-4.738-2.726ZM975.6,99.843l4.741,2.726-24.516,42.464-4.741-2.722Zm0,0" transform="translate(81.48 18.169)"/></g></svg>