<svg xmlns="http://www.w3.org/2000/svg" width="43.108" height="38.687" viewBox="0 0 43.108 38.687"><defs><style>.a{fill:#3c6c88;}.b{fill:#2980b9;}</style></defs><g transform="translate(0 -26.256)"><g transform="translate(0 26.256)"><path class="a" d="M40.345,31.783H2.763a2.763,2.763,0,1,1,0-5.527H40.345a2.763,2.763,0,1,1,0,5.527Z" transform="translate(0 -26.256)"/><path class="a" d="M24.87,228.706H2.763a2.763,2.763,0,1,1,0-5.527H24.87a2.763,2.763,0,0,1,0,5.527Z" transform="translate(0 -206.599)"/></g><path class="b" d="M401.031,228.706h-4.421a2.763,2.763,0,0,1,0-5.527h4.421a2.763,2.763,0,0,1,0,5.527Z" transform="translate(-360.686 -180.343)"/><path class="a" d="M40.345,425.63H2.763a2.763,2.763,0,1,1,0-5.527H40.345a2.763,2.763,0,1,1,0,5.527Z" transform="translate(0 -360.687)"/></g></svg>