<svg xmlns="http://www.w3.org/2000/svg" width="26.907" height="26.907" viewBox="0 0 26.907 26.907"><defs><style>.a{fill:none;stroke:#fff;stroke-miterlimit:10;}.b{fill:#fff;}.c{fill:#662d91;}</style></defs><g transform="translate(-474.467 -290.745)"><g transform="translate(-287.273 437.734)"><path class="a" d="M775.193-120.582a12.968,12.968,0,0,1-12.953-12.953,12.968,12.968,0,0,1,12.953-12.954,12.968,12.968,0,0,1,12.954,12.954A12.968,12.968,0,0,1,775.193-120.582Z"/></g><g transform="translate(-287.273 437.734)"><rect class="b" width="13.228" height="13.228" rx="3.373" transform="translate(768.551 -140.254)"/></g><g transform="translate(-287.273 437.734)"><path class="c" d="M779.561-138.791a.96.96,0,0,0-.959.959.959.959,0,0,0,.959.958.959.959,0,0,0,.959-.958A.96.96,0,0,0,779.561-138.791Z"/><path class="c" d="M775.3-137.561a4.031,4.031,0,0,0-4.027,4.026,4.031,4.031,0,0,0,4.027,4.026,4.03,4.03,0,0,0,4.026-4.026A4.03,4.03,0,0,0,775.3-137.561Z"/><path class="b" d="M775.3-130.956a2.582,2.582,0,0,1-2.58-2.579,2.582,2.582,0,0,1,2.58-2.579,2.582,2.582,0,0,1,2.579,2.579A2.582,2.582,0,0,1,775.3-130.956Z"/></g></g></svg>