<svg xmlns="http://www.w3.org/2000/svg" xmlns:xlink="http://www.w3.org/1999/xlink" width="65.029" height="65.029" viewBox="0 0 65.029 65.029"><defs><style>.a{fill:#fff;}.b{fill:url(#a);}</style><linearGradient id="a" x1="0.096" y1="0.844" x2="1.337" y2="-0.212" gradientUnits="objectBoundingBox"><stop offset="0.001" stop-color="#fbe18a"/><stop offset="0.209" stop-color="#fcbb45"/><stop offset="0.376" stop-color="#f75274"/><stop offset="0.524" stop-color="#d53692"/><stop offset="0.739" stop-color="#8f39ce"/><stop offset="1" stop-color="#5b4fe9"/></linearGradient></defs><g transform="translate(-4097.059 -3034.952)"><circle class="a" cx="28.48" cy="28.48" r="28.48" transform="translate(4101.069 3038.711)"/><path class="b" d="M4129.574,3099.981a32.515,32.515,0,1,1,32.514-32.515A32.552,32.552,0,0,1,4129.574,3099.981Zm10.963-45.707a2.406,2.406,0,1,0,2.406,2.406A2.407,2.407,0,0,0,4140.537,3054.274Zm-10.7,3.086a10.106,10.106,0,1,0,10.107,10.107A10.119,10.119,0,0,0,4129.841,3057.36Zm0,16.581a6.474,6.474,0,1,1,6.474-6.474A6.481,6.481,0,0,1,4129.841,3073.941Zm20.393-14.874a12.327,12.327,0,0,0-12.328-12.327h-16.27a12.328,12.328,0,0,0-12.328,12.327v16.271a12.328,12.328,0,0,0,12.328,12.327h16.27a12.327,12.327,0,0,0,12.328-12.327Zm-3.861,16.271a8.467,8.467,0,0,1-8.467,8.466h-16.27a8.467,8.467,0,0,1-8.467-8.466v-16.271a8.467,8.467,0,0,1,8.467-8.467h16.27a8.467,8.467,0,0,1,8.467,8.467Z"/></g></svg>