<svg xmlns="http://www.w3.org/2000/svg" width="68.044" height="88.753" viewBox="0 0 68.044 88.753"><defs><style>.a{fill:#2980b9;}</style></defs><g transform="translate(-68 -16)"><path class="a" d="M134.748,28.909,123.166,17.3a4.409,4.409,0,0,0-3.142-1.3H72.438A4.438,4.438,0,0,0,68,20.438v79.878a4.438,4.438,0,0,0,4.438,4.438h59.169a4.438,4.438,0,0,0,4.438-4.438V32.043A4.409,4.409,0,0,0,134.748,28.909Zm-1.663,71.406a1.479,1.479,0,0,1-1.479,1.479H72.438a1.479,1.479,0,0,1-1.479-1.479V20.438a1.479,1.479,0,0,1,1.479-1.479h47.335V29.313a4.438,4.438,0,0,0,4.438,4.438h5.917V30.792H124.21a1.479,1.479,0,0,1-1.479-1.479V21.056L132.654,31a1.467,1.467,0,0,1,.432,1.044Z" transform="translate(0 0)"/><path class="a" d="M117.479,160.543h20.709a1.479,1.479,0,0,0,1.479-1.479V129.479A1.479,1.479,0,0,0,138.188,128H117.479A1.479,1.479,0,0,0,116,129.479v29.584A1.479,1.479,0,0,0,117.479,160.543Zm1.479-29.584h17.751v26.626H118.958Z" transform="translate(-39.125 -91.291)"/><path class="a" d="M129.313,336H117.479A1.479,1.479,0,0,0,116,337.479V355.23a1.479,1.479,0,0,0,1.479,1.479h11.834a1.479,1.479,0,0,0,1.479-1.479V337.479A1.479,1.479,0,0,0,129.313,336Zm-1.479,17.751h-8.875V338.958h8.875Z" transform="translate(-39.125 -260.831)"/><path class="a" d="M225.313,336H213.479A1.479,1.479,0,0,0,212,337.479V355.23a1.479,1.479,0,0,0,1.479,1.479h11.834a1.479,1.479,0,0,0,1.479-1.479V337.479A1.479,1.479,0,0,0,225.313,336Zm-1.479,17.751h-8.875V338.958h8.875Z" transform="translate(-117.374 -260.831)"/><path class="a" d="M321.313,336H309.479A1.479,1.479,0,0,0,308,337.479V355.23a1.479,1.479,0,0,0,1.479,1.479h11.834a1.479,1.479,0,0,0,1.479-1.479V337.479A1.479,1.479,0,0,0,321.313,336Zm-1.479,17.751h-8.875V338.958h8.875Z" transform="translate(-195.624 -260.831)"/><path class="a" d="M260,128h2.958v2.958H260Z" transform="translate(-156.499 -91.291)"/><path class="a" d="M292,128h17.751v2.958H292Z" transform="translate(-182.582 -91.291)"/><path class="a" d="M260,160h23.667v2.958H260Z" transform="translate(-156.499 -117.374)"/><path class="a" d="M260,192h23.667v2.958H260Z" transform="translate(-156.499 -143.457)"/><path class="a" d="M260,224h23.667v2.958H260Z" transform="translate(-156.499 -169.54)"/><path class="a" d="M260,256h23.667v2.958H260Z" transform="translate(-156.499 -195.624)"/><path class="a" d="M260,288h23.667v2.958H260Z" transform="translate(-156.499 -221.707)"/><path class="a" d="M116,64h2.958v2.958H116Z" transform="translate(-39.125 -39.125)"/><path class="a" d="M148,64h29.584v2.958H148Z" transform="translate(-65.208 -39.125)"/><path class="a" d="M116,96h35.5v2.958H116Z" transform="translate(-39.125 -65.208)"/></g></svg>