<svg xmlns="http://www.w3.org/2000/svg" width="52.957" height="52.955" viewBox="0 0 52.957 52.955"><defs><style>.a{fill:#3c6c88;}.b{fill:#29abe2;}</style></defs><g transform="translate(-4276.22 -1363.421)"><path class="a" d="M4277.412,1397.7a1.835,1.835,0,0,0,2.079,1.556l3.154-.452a21.674,21.674,0,0,0,2.625,4.42l-1.912,2.555a1.834,1.834,0,0,0,.369,2.569l6.607,4.948a1.835,1.835,0,0,0,2.569-.369l1.913-2.554a21.733,21.733,0,0,0,4.982,1.277l.453,3.154a1.831,1.831,0,0,0,1.817,1.574,1.771,1.771,0,0,0,.26-.019l8.17-1.173a1.835,1.835,0,0,0,1.557-2.077l-.454-3.155a21.681,21.681,0,0,0,4.422-2.626l2.554,1.912a1.836,1.836,0,0,0,2.57-.368l4.948-6.607a1.836,1.836,0,0,0-.369-2.569l-2.554-1.913a21.746,21.746,0,0,0,1.276-4.981l3.154-.453a1.837,1.837,0,0,0,1.556-2.078l-1.173-8.171a1.837,1.837,0,0,0-2.078-1.556l-3.155.453a21.589,21.589,0,0,0-2.625-4.421l1.913-2.555a1.835,1.835,0,0,0-.369-2.568l-6.607-4.948a1.836,1.836,0,0,0-2.57.368l-1.913,2.555a21.675,21.675,0,0,0-4.981-1.277l-.453-3.154a1.835,1.835,0,0,0-2.077-1.556l-8.171,1.172a1.839,1.839,0,0,0-1.556,2.079l.453,3.154a21.725,21.725,0,0,0-4.422,2.626l-2.554-1.913a1.834,1.834,0,0,0-2.569.369l-4.947,6.608a1.836,1.836,0,0,0,.367,2.569l2.556,1.912a21.562,21.562,0,0,0-1.278,4.981l-3.154.454a1.838,1.838,0,0,0-1.556,2.078Zm10.914-21.427a1.834,1.834,0,0,0,2.314-.092,18.087,18.087,0,0,1,5.8-3.447,1.834,1.834,0,0,0,1.19-1.986l-.4-2.761,4.539-.652.4,2.763a1.836,1.836,0,0,0,1.7,1.571,18.092,18.092,0,0,1,6.537,1.674,1.837,1.837,0,0,0,2.247-.562l1.674-2.238,3.67,2.748-1.676,2.237a1.834,1.834,0,0,0,.092,2.313,18.115,18.115,0,0,1,3.448,5.8,1.835,1.835,0,0,0,1.985,1.19l2.763-.4.651,4.537-2.761.4a1.838,1.838,0,0,0-1.572,1.7,18.12,18.12,0,0,1-1.675,6.539,1.835,1.835,0,0,0,.562,2.245l2.238,1.675-2.747,3.669-2.238-1.675a1.835,1.835,0,0,0-2.314.092,18.073,18.073,0,0,1-5.8,3.446,1.839,1.839,0,0,0-1.191,1.986l.4,2.763-4.538.651-.4-2.762a1.836,1.836,0,0,0-1.7-1.571,18.1,18.1,0,0,1-6.539-1.675,1.837,1.837,0,0,0-2.246.563l-1.674,2.237-3.67-2.747,1.676-2.239a1.832,1.832,0,0,0-.092-2.313,18.072,18.072,0,0,1-3.447-5.8,1.84,1.84,0,0,0-1.986-1.19l-2.762.4-.652-4.537,2.762-.4a1.836,1.836,0,0,0,1.571-1.7,18.086,18.086,0,0,1,1.676-6.538,1.838,1.838,0,0,0-.563-2.246l-2.238-1.675,2.749-3.669Z"/><path class="b" d="M4302.69,1403.09a13.36,13.36,0,0,0,1.883-.135,13.183,13.183,0,1,0-1.883.135Zm9.432-14.545a9.52,9.52,0,1,1-10.777-8.071,9.657,9.657,0,0,1,1.361-.1A9.536,9.536,0,0,1,4312.122,1388.545Z"/></g></svg>