<svg xmlns="http://www.w3.org/2000/svg" width="26.907" height="26.907" viewBox="0 0 26.907 26.907"><defs><style>.a{fill:none;stroke:#fff;stroke-miterlimit:10;}.b,.c{fill:#fff;}.c{fill-rule:evenodd;}</style></defs><g transform="translate(-761.74 90.221)"><path class="a" d="M775.193-63.814A12.968,12.968,0,0,1,762.24-76.768a12.968,12.968,0,0,1,12.953-12.953,12.968,12.968,0,0,1,12.954,12.953A12.968,12.968,0,0,1,775.193-63.814Z"/><path class="b" d="M782.638-81.5a6.217,6.217,0,0,1-1.525.436c.246-.042.608-.487.753-.666a2.848,2.848,0,0,0,.508-.925c.013-.027.023-.06,0-.08a.086.086,0,0,0-.08.007,7.786,7.786,0,0,1-1.812.693.121.121,0,0,1-.125-.033,1.631,1.631,0,0,0-.158-.162,3.2,3.2,0,0,0-.878-.537,3.035,3.035,0,0,0-1.346-.217,3.225,3.225,0,0,0-1.277.36,3.3,3.3,0,0,0-1.03.842,3.164,3.164,0,0,0-.615,1.232,3.352,3.352,0,0,0-.033,1.3c.01.073,0,.082-.062.073a9.679,9.679,0,0,1-6.225-3.169c-.073-.083-.112-.083-.172.006a3.157,3.157,0,0,0,.538,3.73c.122.116.248.231.383.337a3.168,3.168,0,0,1-1.2-.337c-.073-.046-.11-.019-.116.063a1.821,1.821,0,0,0,.02.357,3.188,3.188,0,0,0,1.967,2.544,1.841,1.841,0,0,0,.4.122,3.542,3.542,0,0,1-1.178.037c-.086-.017-.119.026-.086.109a3.313,3.313,0,0,0,2.476,2.072c.112.02.224.02.337.046-.007.011-.014.011-.02.02a3.922,3.922,0,0,1-1.691.9,6.042,6.042,0,0,1-2.567.329c-.138-.02-.167-.019-.205,0s-.005.056.04.092c.175.116.353.218.534.317a8.435,8.435,0,0,0,1.717.687,9.145,9.145,0,0,0,8.874-2.075,9.311,9.311,0,0,0,2.456-6.794c0-.1.115-.152.184-.2a5.994,5.994,0,0,0,1.2-1.256.37.37,0,0,0,.075-.241V-81.5C782.7-81.535,782.7-81.523,782.638-81.5Z"/><path class="c" d="M772.08-70.6Z"/><path class="c" d="M772.08-70.6Z"/><path class="c" d="M772.589-70.59c0-.025.267,0,0,0C772.589-70.6,772.622-70.59,772.589-70.59Z"/><path class="c" d="M777.929-82.967a.056.056,0,0,1-.063,0Z"/></g></svg>