<svg xmlns="http://www.w3.org/2000/svg" width="65.029" height="65.029" viewBox="0 0 65.029 65.029"><defs><style>.a{fill:#3cf;}.b,.c{fill:#fff;}.c{fill-rule:evenodd;}</style></defs><g transform="translate(-4097.059 -2194.952)"><path class="a" d="M4129.574,2259.981a32.515,32.515,0,1,1,32.514-32.515A32.552,32.552,0,0,1,4129.574,2259.981Z"/><path class="b" d="M4148.261,2215.6a15.588,15.588,0,0,1-3.828,1.094c.616-.1,1.526-1.221,1.889-1.672a7.044,7.044,0,0,0,1.275-2.322c.033-.066.058-.149-.008-.2a.218.218,0,0,0-.2.017,19.574,19.574,0,0,1-4.547,1.74.3.3,0,0,1-.313-.083,3.8,3.8,0,0,0-.4-.407,8.068,8.068,0,0,0-2.2-1.349,7.651,7.651,0,0,0-3.378-.544,8.066,8.066,0,0,0-3.205.905,8.26,8.26,0,0,0-2.586,2.112,7.926,7.926,0,0,0-1.544,3.093,8.342,8.342,0,0,0-.082,3.265c.024.183.008.207-.157.183-6.246-.93-11.423-3.165-15.626-7.954-.182-.208-.281-.208-.431.016-1.839,2.757-.946,7.186,1.351,9.362.306.29.621.58.96.845a7.947,7.947,0,0,1-3.015-.845c-.182-.115-.274-.049-.29.158a4.819,4.819,0,0,0,.049.9,8.013,8.013,0,0,0,4.939,6.387,4.639,4.639,0,0,0,1,.307,8.937,8.937,0,0,1-2.958.091c-.215-.041-.3.067-.215.274,1.3,3.546,4.11,4.6,6.213,5.2.282.049.564.049.846.115-.017.025-.034.025-.05.05-.7,1.064-3.117,1.855-4.243,2.249a15.2,15.2,0,0,1-6.445.825c-.346-.051-.419-.047-.513,0s-.012.141.1.231c.44.29.887.548,1.342.8a21.25,21.25,0,0,0,4.308,1.723c7.742,2.138,16.463.567,22.276-5.208,4.565-4.536,6.165-10.791,6.165-17.053,0-.245.289-.381.462-.51a15.009,15.009,0,0,0,3.017-3.153.916.916,0,0,0,.187-.6v-.033C4148.4,2215.5,4148.415,2215.53,4148.261,2215.6Z"/><path class="c" d="M4121.76,2242.94Z"/><path class="c" d="M4121.76,2242.94c-.05,0-.625,0,0,0Z"/><path class="c" d="M4123.036,2242.973c0-.064.672,0,0,0C4123.036,2242.94,4123.118,2242.973,4123.036,2242.973Z"/><path class="c" d="M4136.441,2211.905a.136.136,0,0,1-.157,0Z"/></g></svg>