<svg xmlns="http://www.w3.org/2000/svg" xmlns:xlink="http://www.w3.org/1999/xlink" width="77.57" height="73.566" viewBox="0 0 77.57 73.566"><defs><style>.a{fill:none;}.b{clip-path:url(#a);}.c{fill:#e6e7e8;}.d{fill:#6dc9f7;}.e{fill:#d4fbff;}.f,.i{fill:#fff;}.g{fill:#3a2c60;}.h{fill:#3cf;}.i{fill-rule:evenodd;}</style><clipPath id="a"><rect class="a" width="77.57" height="73.566" transform="translate(4527.625 1066.107)"/></clipPath></defs><g transform="translate(-4527.625 -1066.107)"><g class="b"><path class="c" d="M4604.493,1105.819l-10.452-12.052a2.233,2.233,0,0,0-.96-.639v-17.05a6.763,6.763,0,0,0-6.757-6.756H4537.53a6.762,6.762,0,0,0-6.754,6.756v4.49a.75.75,0,0,0,.75.751h11.259V1132.7a6.763,6.763,0,0,0,6.756,6.756h44.51a6.763,6.763,0,0,0,6.756-6.756v-4.49a.75.75,0,0,0-.75-.751h-6.976v-1.751h3.549a2.255,2.255,0,0,0,2.252-2.252v-13.916l3.908,0h0a2.252,2.252,0,0,0,1.7-3.728Zm0,0"/></g><path class="d" d="M4540.533,1073.075a6,6,0,1,0-12.009,0v4.491h12.009Zm0,0"/><path class="e" d="M4557.268,1129.7v-4.49h32.059v-3.252h-4.295a1.5,1.5,0,0,1-1.5-1.5v-14.676h-4.663a1.5,1.5,0,0,1-1.132-2.486l10.468-12.042a1.492,1.492,0,0,1,1.123-.516v-17.664a6.006,6.006,0,0,0-6.005-6.005h-48.794a6.006,6.006,0,0,1,6.005,6.005V1129.7a6.006,6.006,0,0,0,6.006,6.006h4.724a6.006,6.006,0,0,0,6-6.006Zm0,0"/><path class="f" d="M4583.322,1067.07h-48.794a5.99,5.99,0,0,1,4.684,2.252h44.11a6.006,6.006,0,0,1,6.005,6.005v-2.252a6.005,6.005,0,0,0-6.005-6.005Zm0,0"/><path class="d" d="M4557.268,1125.212v4.49a6.006,6.006,0,0,1-6,6.006h39.785a6.006,6.006,0,0,0,6.006-6.006v-4.49Zm0,0"/><path class="f" d="M4588.2,1091.255l-10.468,12.042a1.5,1.5,0,0,0,1.132,2.486h4.662v14.675a1.5,1.5,0,0,0,1.5,1.5h8.594a1.5,1.5,0,0,0,1.5-1.5V1105.79l4.662,0a1.5,1.5,0,0,0,1.135-2.485l-10.451-12.051a1.5,1.5,0,0,0-2.268,0Zm0,0"/><path class="g" d="M4540.533,1101.389a.75.75,0,0,0,.751-.751v-7.709a.75.75,0,1,0-1.5,0v7.709a.751.751,0,0,0,.75.751Zm0,0"/><path class="g" d="M4548.51,1102.277h23.021a.75.75,0,1,0,0-1.5H4548.51a.75.75,0,0,0,0,1.5Zm0,0"/><path class="g" d="M4548.51,1109.784h23.021a.751.751,0,1,0,0-1.5H4548.51a.751.751,0,0,0,0,1.5Zm0,0"/><path class="g" d="M4548.51,1117.291h23.021a.751.751,0,1,0,0-1.5H4548.51a.751.751,0,0,0,0,1.5Zm0,0"/><path class="g" d="M4601.49,1102.817l-10.451-12.053a2.237,2.237,0,0,0-.961-.638v-17.051a6.763,6.763,0,0,0-6.756-6.756h-48.795a6.762,6.762,0,0,0-6.754,6.756v4.491a.75.75,0,0,0,.751.75h11.259v10.449a.75.75,0,1,0,1.5,0v-15.69a6.744,6.744,0,0,0-2.515-5.254h44.553a5.26,5.26,0,0,1,5.254,5.254v17.058a2.242,2.242,0,0,0-.938.628l-10.469,12.043a2.252,2.252,0,0,0,1.7,3.73h3.911v13.925a2.256,2.256,0,0,0,2.252,2.252h3.545v1.75h-31.308a.751.751,0,0,0-.751.751v4.49a5.261,5.261,0,0,1-5.254,5.255h-4.724a5.262,5.262,0,0,1-5.255-5.255v-25.311a.75.75,0,0,0-1.5,0V1129.7a6.763,6.763,0,0,0,6.756,6.756h44.509a6.763,6.763,0,0,0,6.756-6.756v-4.49a.749.749,0,0,0-.75-.751h-6.976v-1.751h3.549a2.255,2.255,0,0,0,2.252-2.252v-13.917l3.909,0h0a2.252,2.252,0,0,0,1.7-3.728Zm-61.707-29.742v3.74h-10.509v-3.74a5.255,5.255,0,0,1,10.509,0Zm56.52,56.627a5.261,5.261,0,0,1-5.255,5.255H4555.5a6.747,6.747,0,0,0,2.514-5.255v-3.739H4596.3Zm4.168-25.1a.737.737,0,0,1-.682.439l-4.661,0h0a.75.75,0,0,0-.75.75v14.668a.752.752,0,0,1-.751.75h-8.594a.751.751,0,0,1-.75-.75v-14.676a.751.751,0,0,0-.751-.75h-4.663a.751.751,0,0,1-.566-1.243l10.468-12.043a.739.739,0,0,1,.566-.258h0a.736.736,0,0,1,.567.259l10.452,12.053a.735.735,0,0,1,.115.8Zm0,0"/><g transform="translate(450 -1123.492)"><g transform="translate(4097.059 2194.952)"><path class="h" d="M4109.671,2220.175a12.612,12.612,0,1,1,12.611-12.612A12.626,12.626,0,0,1,4109.671,2220.175Z" transform="translate(-4097.059 -2194.952)"/></g><g transform="translate(4102.116 2201.378)"><g transform="translate(0)"><path class="f" d="M4125.468,2213.341a6.184,6.184,0,0,1-1.517.434c.245-.041.6-.484.749-.663a2.806,2.806,0,0,0,.506-.92c.013-.026.022-.059,0-.079a.086.086,0,0,0-.081.007,7.785,7.785,0,0,1-1.8.689.121.121,0,0,1-.125-.033,1.5,1.5,0,0,0-.157-.162,3.208,3.208,0,0,0-.874-.535,3.031,3.031,0,0,0-1.338-.215,3.2,3.2,0,0,0-1.27.358,3.282,3.282,0,0,0-1.025.837,3.147,3.147,0,0,0-.612,1.226,3.317,3.317,0,0,0-.032,1.294c.009.072,0,.082-.062.072a9.626,9.626,0,0,1-6.192-3.152c-.072-.083-.112-.083-.171.006a3.141,3.141,0,0,0,.535,3.71c.121.115.247.23.381.335a3.157,3.157,0,0,1-1.2-.335c-.072-.046-.108-.02-.115.063a1.879,1.879,0,0,0,.02.354,3.177,3.177,0,0,0,1.957,2.532,1.882,1.882,0,0,0,.4.122,3.543,3.543,0,0,1-1.172.036c-.085-.016-.119.026-.085.109a3.3,3.3,0,0,0,2.462,2.062c.111.019.223.019.335.045-.007.01-.013.01-.02.02a3.9,3.9,0,0,1-1.682.892,6.021,6.021,0,0,1-2.553.327c-.138-.02-.167-.019-.2,0s0,.056.04.092c.174.115.351.217.531.315a8.442,8.442,0,0,0,1.708.683,9.093,9.093,0,0,0,8.828-2.064,9.264,9.264,0,0,0,2.442-6.758c0-.1.115-.151.184-.2a5.96,5.96,0,0,0,1.2-1.25.364.364,0,0,0,.075-.239v-.013C4125.524,2213.3,4125.529,2213.314,4125.468,2213.341Z" transform="translate(-4110.505 -2211.859)"/></g><g transform="translate(4.46 12.317)"><path class="i" d="M4121.759,2242.94Z" transform="translate(-4121.759 -2242.94)"/></g><g transform="translate(4.346 12.317)"><path class="i" d="M4121.585,2242.94c-.02,0-.247,0,0,0Z" transform="translate(-4121.471 -2242.94)"/></g><g transform="translate(4.966 12.319)"><path class="i" d="M4123.036,2242.956c0-.025.266,0,0,0C4123.036,2242.943,4123.069,2242.956,4123.036,2242.956Z" transform="translate(-4123.036 -2242.945)"/></g><g transform="translate(10.216 0.018)"><path class="i" d="M4136.346,2211.905a.053.053,0,0,1-.062,0Z" transform="translate(-4136.284 -2211.905)"/></g></g></g></g></svg>