<svg xmlns="http://www.w3.org/2000/svg" width="25.264" height="29.945" viewBox="0 0 25.264 29.945"><defs><style>.a{fill:#fff;}.a,.b{stroke:#fff;stroke-miterlimit:10;stroke-width:9px;}.b,.d{fill:#33a8df;}.c{fill:#3c6c87;}</style></defs><g transform="translate(-2177.344 -2573.162)"><g transform="translate(2181.844 2577.662)"><path class="a" d="M2198.972,2587.519a4.928,4.928,0,1,0-4.928-4.928A4.934,4.934,0,0,0,2198.972,2587.519Z" transform="translate(-2190.84 -2577.662)"/><path class="b" d="M2182.829,2631.813h14.294a.985.985,0,0,0,.985-.985,8.132,8.132,0,1,0-16.264,0A.985.985,0,0,0,2182.829,2631.813Z" transform="translate(-2181.844 -2610.869)"/></g><g transform="translate(2181.844 2577.662)"><path class="c" d="M2198.972,2587.519a4.928,4.928,0,1,0-4.928-4.928A4.934,4.934,0,0,0,2198.972,2587.519Zm0-7.886a2.958,2.958,0,1,1-2.958,2.958A2.961,2.961,0,0,1,2198.972,2579.633Z" transform="translate(-2190.84 -2577.662)"/><path class="d" d="M2182.829,2631.813h14.294a.985.985,0,0,0,.985-.985,8.132,8.132,0,1,0-16.264,0A.985.985,0,0,0,2182.829,2631.813Z" transform="translate(-2181.844 -2610.869)"/></g></g></svg>