<svg xmlns="http://www.w3.org/2000/svg" width="57.96" height="57.96" viewBox="0 0 57.96 57.96"><defs><style>.a{fill:#3c6c88;}</style></defs><g transform="translate(-384 -104)"><path class="a" d="M441.96,132.98a28.98,28.98,0,1,0-28.98,28.98,28.964,28.964,0,0,0,28.98-28.98ZM412.98,107.4a25.587,25.587,0,0,1,21.2,39.906,28.969,28.969,0,0,0-42.405,0,25.587,25.587,0,0,1,21.2-39.906ZM393.9,150.017a25.577,25.577,0,0,1,38.168,0,25.559,25.559,0,0,1-38.168,0Zm0,0"/><path class="a" d="M560.188,188.773a10.2,10.2,0,0,0,10.188-10.188v-3.4a10.188,10.188,0,1,0-20.377,0v3.4a10.2,10.2,0,0,0,10.188,10.188ZM553.4,175.188a6.792,6.792,0,0,1,13.584,0v3.4a6.792,6.792,0,0,1-13.584,0Zm0,0" transform="translate(-147.208 -54.095)"/></g></svg>